<?xml version="1.0" encoding="iso-8859-1"?>
<!-- Generator: Adobe Illustrator 19.0.0, SVG Export Plug-In . SVG Version: 6.00 Build 0)  -->
<svg version="1.1" id="Layer_1" xmlns="http://www.w3.org/2000/svg" xmlns:xlink="http://www.w3.org/1999/xlink" x="0px" y="0px"
	 viewBox="0 0 512.019 512.019" style="enable-background:new 0 0 512.019 512.019;" xml:space="preserve">
<g>
	<g>
		<path d="M480.009,106.676h-448c-17.643,0-32,14.357-32,32v298.667c0,17.643,14.357,32,32,32h448c17.643,0,32-14.357,32-32V138.676
			C512.009,121.033,497.652,106.676,480.009,106.676z M490.676,437.343c0,5.888-4.779,10.667-10.667,10.667h-448
			c-5.888,0-10.667-4.779-10.667-10.667V138.676c0-5.888,4.779-10.667,10.667-10.667h448c5.888,0,10.667,4.779,10.667,10.667
			V437.343z"/>
	</g>
</g>
<g>
	<g>
		<path d="M309.343,42.676H202.676c-17.643,0-32,14.357-32,32v42.667c0,5.888,4.779,10.667,10.667,10.667h149.333
			c5.888,0,10.667-4.779,10.667-10.667V74.676C341.343,57.033,326.985,42.676,309.343,42.676z M320.009,106.676h-128v-32
			c0-5.888,4.779-10.667,10.667-10.667h106.667c5.888,0,10.667,4.779,10.667,10.667V106.676z"/>
	</g>
</g>
<g>
	<g>
		<path d="M511.668,242.655c-1.493-5.717-7.403-9.088-13.013-7.637l-169.963,44.331c-47.552,12.416-97.835,12.416-145.387,0
			L13.364,235.017c-5.611-1.451-11.541,1.92-13.013,7.637c-1.493,5.696,1.92,11.52,7.637,13.013l169.941,44.331
			c25.557,6.656,51.819,9.984,78.08,9.984s52.544-3.328,78.08-9.984l169.941-44.331
			C509.748,254.175,513.161,248.351,511.668,242.655z"/>
	</g>
</g>
<g>
	<g>
		<path d="M256.009,192.009c-23.531,0-42.667,19.136-42.667,42.667c0,23.531,19.136,42.667,42.667,42.667
			s42.667-19.136,42.667-42.667C298.676,211.145,279.54,192.009,256.009,192.009z M256.009,256.009
			c-11.755,0-21.333-9.579-21.333-21.333c0-11.755,9.579-21.333,21.333-21.333c11.755,0,21.333,9.579,21.333,21.333
			C277.343,246.431,267.764,256.009,256.009,256.009z"/>
	</g>
</g>
<g>
</g>
<g>
</g>
<g>
</g>
<g>
</g>
<g>
</g>
<g>
</g>
<g>
</g>
<g>
</g>
<g>
</g>
<g>
</g>
<g>
</g>
<g>
</g>
<g>
</g>
<g>
</g>
<g>
</g>
</svg>
